<svg width="16" height="16" viewBox="0 0 16 16" fill="none" xmlns="http://www.w3.org/2000/svg">
<rect x="0.5" y="0.5" width="15" height="15" rx="3.5" fill="#EC4899"/>
<path d="M12.207 4.793C12.3945 4.98053 12.4998 5.23484 12.4998 5.5C12.4998 5.76516 12.3945 6.01947 12.207 6.207L7.20704 11.207C7.01951 11.3945 6.76521 11.4998 6.50004 11.4998C6.23488 11.4998 5.98057 11.3945 5.79304 11.207L3.79304 9.207C3.61088 9.0184 3.51009 8.7658 3.51237 8.5036C3.51465 8.2414 3.61981 7.99059 3.80522 7.80518C3.99063 7.61977 4.24144 7.5146 4.50364 7.51233C4.76584 7.51005 5.01844 7.61084 5.20704 7.793L6.50004 9.086L10.793 4.793C10.9806 4.60553 11.2349 4.50021 11.5 4.50021C11.7652 4.50021 12.0195 4.60553 12.207 4.793Z" fill="white"/>
<rect x="0.5" y="0.5" width="15" height="15" rx="3.5" stroke="#EC4899"/>
</svg>
